<svg width="16" height="16" viewBox="0 0 16 16" fill="none" xmlns="http://www.w3.org/2000/svg">
<path d="M8 0C10.2621 0.0594286 12.1461 0.842095 13.652 2.348C15.1579 3.8539 15.9406 5.73791 16 8C15.9406 10.2621 15.1579 12.1461 13.652 13.652C12.1461 15.1579 10.2621 15.9406 8 16C5.73791 15.9406 3.8539 15.1579 2.348 13.652C0.842095 12.1461 0.0594286 10.2621 0 8C0.0594286 5.73791 0.842095 3.8539 2.348 2.348C3.8539 0.842095 5.73791 0.0594286 8 0ZM8 14.8571C9.94057 14.8095 11.5566 14.1398 12.848 12.848C14.1394 11.5562 14.8091 9.94019 14.8571 8C14.8095 6.05943 14.1398 4.44343 12.848 3.152C11.5562 1.86057 9.94019 1.19086 8 1.14286C6.05943 1.19048 4.44343 1.86019 3.152 3.152C1.86057 4.44381 1.19086 6.05981 1.14286 8C1.19048 9.94057 1.86019 11.5566 3.152 12.848C4.44381 14.1394 6.05981 14.8091 8 14.8571ZM8.85714 11.7143C8.84533 11.9524 8.75905 12.1518 8.59829 12.3126C8.43752 12.4733 8.2381 12.5537 8 12.5537C7.76191 12.5537 7.56248 12.4733 7.40171 12.3126C7.24095 12.1518 7.16057 11.9524 7.16057 11.7143C7.16057 11.4762 7.24095 11.2768 7.40171 11.116C7.56248 10.9552 7.76191 10.8749 8 10.8749C8.2381 10.8749 8.43752 10.9552 8.59829 11.116C8.75905 11.2768 8.84533 11.4762 8.85714 11.7143ZM8 3.42857C8.16686 3.42857 8.30381 3.4821 8.41086 3.58914C8.51791 3.69619 8.57143 3.83314 8.57143 4V9.14286C8.57143 9.30971 8.51791 9.44667 8.41086 9.55371C8.30381 9.66076 8.16686 9.71429 8 9.71429C7.83314 9.71429 7.69619 9.66076 7.58914 9.55371C7.4821 9.44667 7.42857 9.30971 7.42857 9.14286V4C7.42857 3.83314 7.4821 3.69619 7.58914 3.58914C7.69619 3.4821 7.83314 3.42857 8 3.42857Z" fill="white"/>
</svg>
