<svg width="12" height="7" viewBox="0 0 12 7" fill="none" xmlns="http://www.w3.org/2000/svg">
<path d="M11.0001 0.328014L6.00011 5.20301L1.00011 0.328014C0.906447 0.234347 0.797113 0.187514 0.672113 0.187514C0.547113 0.187514 0.43778 0.234347 0.344113 0.328014C0.250447 0.42168 0.203613 0.531014 0.203613 0.656014C0.203613 0.781014 0.24528 0.88518 0.328613 0.968514L5.65661 6.15601C5.75028 6.24968 5.86495 6.29651 6.00061 6.29651C6.13628 6.29651 6.25095 6.24968 6.34461 6.15601L11.6726 0.984014C11.7559 0.890347 11.7976 0.778347 11.7976 0.648013C11.7976 0.51768 11.7508 0.408347 11.6571 0.320014C11.5634 0.231681 11.4541 0.187347 11.3291 0.187013C11.2041 0.18668 11.0948 0.233514 11.0011 0.327514L11.0001 0.328014Z" fill="white"/>
</svg>
