<svg width="10" height="10" viewBox="0 0 10 10" fill="none" xmlns="http://www.w3.org/2000/svg">
<path d="M9 1.25H2.531C2.385 1.25 2.26517 1.20317 2.1715 1.1095C2.07783 1.01583 2.031 0.896 2.031 0.75C2.031 0.604 2.07783 0.484167 2.1715 0.3905C2.26517 0.296833 2.385 0.25 2.531 0.25H9.5C9.646 0.25 9.76583 0.296833 9.8595 0.3905C9.95317 0.484167 10 0.604 10 0.75V7.75C10 7.896 9.95317 8.01583 9.8595 8.1095C9.76583 8.20317 9.646 8.25 9.5 8.25C9.354 8.25 9.23417 8.20317 9.1405 8.1095C9.04683 8.01583 9 7.896 9 7.75V1.25ZM9.1405 0.3905C9.24483 0.296833 9.36467 0.25 9.5 0.25C9.63533 0.25 9.7525 0.2995 9.8515 0.3985C9.9505 0.4975 10 0.614667 10 0.75C10 0.885333 9.95317 1.00517 9.8595 1.1095L1.3595 9.6095C1.25517 9.70317 1.13533 9.75 1 9.75C0.864667 9.75 0.7475 9.7005 0.6485 9.6015C0.5495 9.5025 0.5 9.38533 0.5 9.25C0.5 9.11467 0.546833 8.99483 0.6405 8.8905L9.1405 0.3905Z" fill="#01C400"/>
</svg>
