<svg width="22" height="22" viewBox="0 0 22 22" fill="none" xmlns="http://www.w3.org/2000/svg">
<path d="M4.8125 10.3125H18.5625C18.7633 10.3125 18.928 10.3769 19.0568 10.5057C19.1856 10.6345 19.25 10.7993 19.25 11C19.25 11.2007 19.1856 11.3655 19.0568 11.4943C18.928 11.6231 18.7633 11.6875 18.5625 11.6875H4.8125C4.61175 11.6875 4.44698 11.6231 4.31819 11.4943C4.1894 11.3655 4.125 11.2007 4.125 11C4.125 10.7993 4.1894 10.6345 4.31819 10.5057C4.44698 10.3769 4.61175 10.3125 4.8125 10.3125ZM5.09163 11L10.8068 16.6932C10.9356 16.8366 11 17.0014 11 17.1875C11 17.3736 10.9319 17.5347 10.7958 17.6708C10.6597 17.8069 10.4986 17.875 10.3125 17.875C10.1264 17.875 9.96165 17.8106 9.81819 17.6818L3.63069 11.4943C3.5019 11.3509 3.4375 11.1861 3.4375 11C3.4375 10.8139 3.5019 10.6491 3.63069 10.5057L9.81819 4.31819C9.96165 4.1894 10.1264 4.125 10.3125 4.125C10.4986 4.125 10.6597 4.19306 10.7958 4.32919C10.9319 4.46531 11 4.62642 11 4.8125C11 4.99858 10.9356 5.16335 10.8068 5.30681L5.09163 11Z" fill="#01C400"/>
</svg>
