<svg width="12" height="12" viewBox="0 0 12 12" fill="none" xmlns="http://www.w3.org/2000/svg">
<path d="M0.5 11H11.5C11.646 11 11.7658 11.0468 11.8595 11.1405C11.9532 11.2341 12 11.354 12 11.5C12 11.646 11.9532 11.7658 11.8595 11.8595C11.7658 11.9531 11.646 12 11.5 12H0.5C0.354 12 0.234167 11.9531 0.1405 11.8595C0.0468334 11.7658 0 11.646 0 11.5C0 11.354 0.0468334 11.2341 0.1405 11.1405C0.234167 11.0468 0.354 11 0.5 11ZM6.5 1.96898V9.00048H5.5V1.85998L1.703 5.65698L1 4.95398L5.953 0.000976562L10.906 4.95398L10.187 5.65698L6.5 1.96898Z" fill="#01C400"/>
</svg>
