<svg width="18" height="19" viewBox="0 0 18 19" fill="none" xmlns="http://www.w3.org/2000/svg">
<path d="M10.9337 4.15632C11.7931 3.35424 12.7707 2.9532 13.8666 2.9532C14.9625 2.9532 15.9328 3.35424 16.7775 4.15632C17.5796 5.0157 17.9806 5.99332 17.9806 7.0892C17.9806 8.18507 17.5796 9.15536 16.7775 10.0001L9.96711 16.8104C8.83549 17.8848 7.53932 18.4219 6.07861 18.4219C4.6179 18.4219 3.32174 17.8848 2.19011 16.8104C1.11578 15.6788 0.578613 14.3827 0.578613 12.9219C0.578613 11.4612 1.11578 10.1651 2.19011 9.03345L10.9344 0.267822L11.9231 1.25645L3.15743 10.0008C2.35534 10.8459 1.9543 11.8162 1.9543 12.9116C1.9543 14.0071 2.35534 14.9847 3.15743 15.8445C4.0168 16.6466 4.99443 17.0476 6.0903 17.0476C7.18618 17.0476 8.15647 16.6466 9.00118 15.8445L15.8116 9.03413C16.3414 8.46122 16.6063 7.80947 16.6063 7.07889C16.6063 6.3483 16.3414 5.70366 15.8116 5.14495C15.2386 4.60045 14.5869 4.3282 13.8563 4.3282C13.1257 4.3282 12.4811 4.60045 11.9224 5.14495L5.60561 11.4617C5.41953 11.6478 5.35857 11.8698 5.42274 12.1279C5.4869 12.3859 5.64801 12.547 5.90605 12.6112C6.16409 12.6754 6.38615 12.6144 6.57224 12.4283L12.889 6.11157L13.8556 7.0782L7.53886 13.3949C7.28082 13.6672 6.97282 13.8535 6.61486 13.9539C6.25691 14.0543 5.89528 14.0579 5.52999 13.9649C5.1647 13.8718 4.85326 13.6963 4.59568 13.4383C4.33809 13.1802 4.16255 12.8651 4.06905 12.4929C3.97555 12.1208 3.97922 11.7592 4.08005 11.4081C4.18088 11.057 4.35986 10.7527 4.61699 10.4951L10.9337 4.15632Z" fill="#222222"/>
</svg>
