<svg width="24" height="24" viewBox="0 0 24 24" fill="none" xmlns="http://www.w3.org/2000/svg">
<path d="M12 1.5C12.422 1.5155 12.7735 1.664 13.0545 1.9455C13.3355 2.227 13.484 2.5785 13.5 3V4.5H10.5V3C10.5155 2.578 10.664 2.2265 10.9455 1.9455C11.227 1.6645 11.5785 1.516 12 1.5ZM6 18H18V10.5C17.953 8.797 17.367 7.383 16.242 6.258C15.117 5.133 13.703 4.547 12 4.5C10.297 4.547 8.883 5.133 7.758 6.258C6.633 7.383 6.047 8.797 6 10.5V18ZM12 3C14.125 3.047 15.8945 3.7775 17.3085 5.1915C18.7225 6.6055 19.453 8.375 19.5 10.5V19.5H4.5V10.5C4.547 8.375 5.2775 6.6055 6.6915 5.1915C8.1055 3.7775 9.875 3.047 12 3ZM2.25 18H21.75C22.25 18 22.5 18.25 22.5 18.75C22.5 19.25 22.25 19.5 21.75 19.5H2.25C1.75 19.5 1.5 19.25 1.5 18.75C1.5 18.25 1.75 18 2.25 18ZM10.5 21H13.5C13.4845 21.422 13.336 21.7735 13.0545 22.0545C12.773 22.3355 12.4215 22.4762 12 22.4767C11.5785 22.4772 11.227 22.3365 10.9455 22.0545C10.664 21.7725 10.5155 21.421 10.5 21Z" fill="white"/>
</svg>
