<svg width="18" height="16" viewBox="0 0 18 16" fill="none" xmlns="http://www.w3.org/2000/svg">
<path d="M16.7136 3.69231H1.28507V14.7692H16.7136V3.69231ZM12.7157 2.46154L12.0729 1.23077H5.94579L5.30293 2.46154H12.7157ZM0.642214 2.46154H3.8565L4.78093 0.673231C4.90136 0.468103 5.06207 0.304615 5.26307 0.182769C5.46407 0.060923 5.69186 0 5.94643 0H12.0735C12.3148 0 12.5357 0.060923 12.7363 0.182769C12.9369 0.304615 13.0976 0.468103 13.2184 0.673231L14.1429 2.46154H17.3571C17.5449 2.46154 17.6989 2.51918 17.8194 2.63446C17.9398 2.74974 18 2.89723 18 3.07692V15.3846C18 15.5643 17.9398 15.7118 17.8194 15.8271C17.6989 15.9424 17.5449 16 17.3571 16H0.642857C0.455143 16 0.301072 15.9424 0.180643 15.8271C0.0602144 15.7118 0 15.5643 0 15.3846V3.07692C0 2.89723 0.0602144 2.74974 0.180643 2.63446C0.301072 2.51918 0.455143 2.46154 0.642857 2.46154H0.642214ZM8.99936 12.3077C9.91007 12.2818 10.6667 11.9805 11.2693 11.4037C11.8719 10.8269 12.1866 10.1026 12.2136 9.23077C12.1866 8.35897 11.8719 7.63467 11.2693 7.05785C10.6667 6.48103 9.91007 6.17969 8.99936 6.15385C8.08864 6.17969 7.332 6.48103 6.72943 7.05785C6.12686 7.63467 5.81207 8.35897 5.78507 9.23077C5.81207 10.1026 6.12686 10.8269 6.72943 11.4037C7.332 11.9805 8.08864 12.2818 8.99936 12.3077ZM8.99936 13.5385C7.72693 13.5126 6.66557 13.0927 5.81529 12.2788C4.965 11.4648 4.52636 10.4488 4.49936 9.23077C4.52636 8.01272 4.965 6.99672 5.81529 6.18277C6.66557 5.36882 7.72693 4.94892 8.99936 4.92308C10.2718 4.94892 11.3331 5.36882 12.1834 6.18277C13.0337 6.99672 13.4724 8.01272 13.4994 9.23077C13.4724 10.4488 13.0337 11.4648 12.1834 12.2788C11.3331 13.0927 10.2718 13.5126 8.99936 13.5385Z" fill="#01C400"/>
</svg>
