<svg width="22" height="22" viewBox="0 0 22 22" fill="none" xmlns="http://www.w3.org/2000/svg">
<path d="M3.75989 18.3908L6.66045 17.4242L7.17608 17.6607C8.35079 18.2625 9.62564 18.5634 11.0006 18.5634C13.3354 18.4919 15.2796 17.7292 16.8334 16.2754C18.3871 14.8216 19.1929 13.0634 19.2506 11.0009C19.1933 8.93839 18.3876 7.18022 16.8334 5.72639C15.2792 4.27255 13.3349 3.50989 11.0006 3.43839C8.66589 3.50989 6.72164 4.27255 5.16789 5.72639C3.61414 7.18022 2.80839 8.93839 2.75064 11.0009C2.75064 11.7457 2.87966 12.4834 3.13771 13.2139C3.39575 13.9445 3.77525 14.632 4.2762 15.2764L4.74921 15.8993L3.75989 18.3908ZM2.77127 20.1529C2.49902 20.2391 2.26618 20.1781 2.07277 19.97C1.87935 19.7619 1.83283 19.522 1.93321 19.2502L3.17964 16.1131C2.60673 15.3541 2.1626 14.5413 1.84727 13.6746C1.53193 12.8079 1.37427 11.9162 1.37427 10.9995C1.43156 8.63634 2.34823 6.57751 4.12427 4.82301C5.90031 3.06851 8.19198 2.14818 10.9993 2.06201C13.8066 2.14818 16.0982 3.06851 17.8743 4.82301C19.6503 6.57751 20.567 8.63634 20.6243 10.9995C20.567 13.3627 19.6503 15.4215 17.8743 17.176C16.0982 18.9305 13.8066 19.8508 10.9993 19.937C9.43818 19.937 7.9557 19.5933 6.55183 18.9058L2.77127 20.1529ZM7.56246 12.3752H14.4375C14.8958 12.3752 15.125 12.6044 15.125 13.0627C15.125 13.521 14.8958 13.7502 14.4375 13.7502H7.56246C7.10412 13.7502 6.87496 13.521 6.87496 13.0627C6.87496 12.6044 7.10412 12.3752 7.56246 12.3752ZM8.24996 8.2502H13.75C14.2083 8.2502 14.4375 8.47937 14.4375 8.9377C14.4375 9.39603 14.2083 9.6252 13.75 9.6252H8.24996C7.79162 9.6252 7.56246 9.39603 7.56246 8.9377C7.56246 8.47937 7.79162 8.2502 8.24996 8.2502Z" fill="#01C400"/>
</svg>
