<svg width="16" height="16" viewBox="0 0 16 16" fill="none" xmlns="http://www.w3.org/2000/svg">
<path d="M8 14C9.698 13.9583 11.112 13.3723 12.242 12.242C13.372 11.1117 13.958 9.69767 14 8C13.9583 6.302 13.3723 4.888 12.242 3.758C11.1117 2.628 9.69767 2.042 8 2C6.302 2.04167 4.888 2.62767 3.758 3.758C2.628 4.88833 2.042 6.30233 2 8C2.04167 9.698 2.62767 11.112 3.758 12.242C4.88833 13.372 6.30233 13.958 8 14ZM8 15C6.02067 14.948 4.37217 14.2632 3.0545 12.9455C1.73683 11.6278 1.052 9.97933 1 8C1.052 6.02067 1.73683 4.37217 3.0545 3.0545C4.37217 1.73683 6.02067 1.052 8 1C9.97933 1.052 11.6278 1.73683 12.9455 3.0545C14.2632 4.37217 14.948 6.02067 15 8C14.948 9.97933 14.2632 11.6278 12.9455 12.9455C11.6278 14.2632 9.97933 14.948 8 15ZM11.6405 5.6405C11.7448 5.54683 11.8647 5.5 12 5.5C12.1353 5.5 12.2525 5.5495 12.3515 5.6485C12.4505 5.7475 12.5 5.86467 12.5 6C12.5 6.13533 12.4532 6.25517 12.3595 6.3595L7.8595 10.8595C7.75517 10.9532 7.63533 11 7.5 11C7.36467 11 7.24483 10.9532 7.1405 10.8595L4.6405 8.3595C4.54683 8.25517 4.5 8.13533 4.5 8C4.5 7.86467 4.5495 7.7475 4.6485 7.6485C4.7475 7.5495 4.86467 7.5 5 7.5C5.13533 7.5 5.25517 7.54683 5.3595 7.6405L7.5 9.797L11.6405 5.6405Z" fill="white"/>
</svg>
