<svg width="20" height="20" viewBox="0 0 20 20" fill="none" xmlns="http://www.w3.org/2000/svg">
<path d="M8.65837 9.625L6.70312 7.69106C6.57433 7.5476 6.50994 7.38283 6.50994 7.19675C6.50994 7.01067 6.578 6.84956 6.71412 6.71344C6.85025 6.57731 7.01135 6.50925 7.19744 6.50925C7.38352 6.50925 7.54829 6.57365 7.69175 6.70244L9.62569 8.65769L11.5596 6.70244C11.7604 6.51635 11.9859 6.45906 12.2361 6.53056C12.4864 6.60206 12.6475 6.76317 12.7194 7.01388C12.7914 7.26458 12.7341 7.49008 12.5476 7.69037L10.5923 9.62431L12.5476 11.5583C12.7336 11.759 12.7909 11.9845 12.7194 12.2347C12.6479 12.485 12.4868 12.6461 12.2361 12.7181C11.9854 12.79 11.7599 12.7327 11.5596 12.5462L9.62569 10.5909L7.69175 12.5462C7.54829 12.675 7.38352 12.7394 7.19744 12.7394C7.01135 12.7394 6.85025 12.6713 6.71412 12.5352C6.578 12.3991 6.50994 12.238 6.50994 12.0519C6.50994 11.8658 6.57433 11.701 6.70312 11.5576L8.65837 9.625ZM9.625 17.875C11.9598 17.8177 13.904 17.012 15.4577 15.4577C17.0115 13.9035 17.8172 11.9593 17.875 9.625C17.8177 7.29025 17.012 5.346 15.4577 3.79225C13.9035 2.2385 11.9593 1.43275 9.625 1.375C7.29025 1.43229 5.346 2.23804 3.79225 3.79225C2.2385 5.34646 1.43275 7.29071 1.375 9.625C1.43229 11.9598 2.23804 13.904 3.79225 15.4577C5.34646 17.0115 7.29071 17.8172 9.625 17.875ZM9.625 19.25C6.90342 19.1785 4.63673 18.2369 2.82494 16.4251C1.01315 14.6133 0.0715 12.3466 0 9.625C0.0715 6.90342 1.01315 4.63673 2.82494 2.82494C4.63673 1.01315 6.90342 0.0715 9.625 0C12.3466 0.0715 14.6133 1.01315 16.4251 2.82494C18.2369 4.63673 19.1785 6.90342 19.25 9.625C19.1785 12.3466 18.2369 14.6133 16.4251 16.4251C14.6133 18.2369 12.3466 19.1785 9.625 19.25Z" fill="white"/>
</svg>
