<svg width="14" height="11" viewBox="0 0 14 11" fill="none" xmlns="http://www.w3.org/2000/svg">
<path d="M1 1V9C1.01033 9.28133 1.10933 9.51567 1.297 9.703C1.48467 9.89033 1.719 9.98933 2 10H12C12.2813 9.98967 12.5157 9.89067 12.703 9.703C12.8903 9.51533 12.9893 9.281 13 9V1H1ZM1 0H13C13.2813 0.0103333 13.5157 0.109333 13.703 0.297C13.8903 0.484667 13.9893 0.719 14 1V9C13.9897 9.56267 13.7943 10.034 13.414 10.414C13.0337 10.794 12.5623 10.9893 12 11H2C1.43733 10.9897 0.966 10.7943 0.586 10.414C0.206 10.0337 0.0106667 9.56233 0 9V1C0.0103333 0.718667 0.109333 0.484333 0.297 0.297C0.484667 0.109667 0.719 0.0106667 1 0ZM13.125 1L9.2655 5.422C8.97383 5.745 8.63267 5.995 8.242 6.172C7.85133 6.349 7.43733 6.4375 7 6.4375C6.56267 6.4375 6.14867 6.349 5.758 6.172C5.36733 5.995 5.02617 5.745 4.7345 5.422L0.875 1H13.125ZM2.203 1L5.5 4.7655C5.68767 4.98417 5.91167 5.15083 6.172 5.2655C6.43233 5.38017 6.70833 5.4375 7 5.4375C7.29167 5.4375 7.56767 5.38017 7.828 5.2655C8.08833 5.15083 8.31233 4.98417 8.5 4.7655L11.797 1H2.203Z" fill="#55B520"/>
</svg>
