<svg width="20" height="21" viewBox="0 0 20 21" fill="none" xmlns="http://www.w3.org/2000/svg">
    <path d="M10 1.75C12.4742 1.815 14.5348 2.67104 16.1819 4.31813C17.829 5.96521 18.685 8.02583 18.75 10.5C18.685 12.9742 17.829 15.0348 16.1819 16.6819C14.5348 18.329 12.4742 19.185 10 19.25C7.52583 19.185 5.46521 18.329 3.81813 16.6819C2.17104 15.0348 1.315 12.9742 1.25 10.5C1.315 8.02583 2.17104 5.96521 3.81813 4.31813C5.46521 2.67104 7.52583 1.815 10 1.75V1.75ZM10 9.44562L7.96875 7.41437C7.8125 7.25812 7.63354 7.18 7.43187 7.18C7.23021 7.18 7.05437 7.25479 6.90437 7.40437C6.75437 7.55396 6.67958 7.72979 6.68 7.93187C6.68042 8.13396 6.75854 8.31292 6.91437 8.46875L8.94562 10.5L6.91437 12.5312C6.75812 12.6875 6.68 12.8665 6.68 13.0681C6.68 13.2698 6.75479 13.4456 6.90437 13.5956C7.05396 13.7456 7.22979 13.8204 7.43187 13.82C7.63396 13.8196 7.81292 13.7415 7.96875 13.5856L10 11.5544L12.0312 13.5856C12.2396 13.781 12.4804 13.8429 12.7538 13.7712C13.0271 13.6996 13.1996 13.5271 13.2712 13.2538C13.3429 12.9804 13.281 12.7396 13.0856 12.5312L11.0544 10.5L13.0856 8.46875C13.2419 8.3125 13.32 8.13354 13.32 7.93187C13.32 7.73021 13.2452 7.55437 13.0956 7.40437C12.946 7.25437 12.7702 7.17958 12.5681 7.18C12.366 7.18042 12.1871 7.25854 12.0312 7.41437L10 9.44562Z" fill="#CA3504" />
</svg>