<svg width="20" height="17" viewBox="0 0 20 17" fill="none" xmlns="http://www.w3.org/2000/svg">
<path d="M17.4886 6.875H3.82456L1.76206 15.125H15.4261L17.4886 6.875ZM16.5 5.5V4.125H9.06606L6.31606 1.375H1.37431V11L2.62075 6.01562C2.66383 5.85796 2.7461 5.7326 2.86756 5.63956C2.98902 5.54652 3.12858 5.5 3.28625 5.5H16.4993H16.5ZM15.9631 16.5H0.6875C0.48675 16.5 0.321979 16.4356 0.193187 16.3068C0.0643958 16.178 0 16.0133 0 15.8125V0.6875C0 0.48675 0.0643958 0.321979 0.193187 0.193188C0.321979 0.0643959 0.48675 0 0.6875 0H6.875L9.625 2.75H17.1875C17.3883 2.75 17.553 2.8144 17.6818 2.94319C17.8106 3.07198 17.875 3.23675 17.875 3.4375V5.5H18.3693C18.5843 5.5 18.7598 5.5896 18.8959 5.76881C19.0321 5.94802 19.0786 6.14488 19.0355 6.35938L16.6292 15.9844C16.5862 16.142 16.5039 16.2674 16.3824 16.3604C16.261 16.4535 16.1214 16.5 15.9637 16.5H15.9631Z" fill="#01C400"/>
</svg>
