<svg width="15" height="16" viewBox="0 0 15 16" fill="none" xmlns="http://www.w3.org/2000/svg">
<path d="M2.37501 1.25004C-1.67512 4.62514 2.37501 14.75 2.37501 14.75H13.625V1.25004C13.625 1.25004 5.75011 -1.56255 2.37501 1.25004ZM1.81251 0.125038H14.1875C14.3518 0.125038 14.4866 0.177725 14.5919 0.2831C14.6973 0.388475 14.75 0.523288 14.75 0.687538V15.3125C14.75 15.4768 14.6973 15.6116 14.5919 15.717C14.4866 15.8224 14.3518 15.875 14.1875 15.875H1.81251C1.64826 15.875 1.51344 15.8224 1.40807 15.717C1.30269 15.6116 1.25001 15.4768 1.25001 15.3125V0.687538C1.25001 0.523288 1.30269 0.388475 1.40807 0.2831C1.51344 0.177725 1.64826 0.125038 1.81251 0.125038ZM4.62501 8.00004H11.375V9.12504H4.62501V8.00004ZM4.62501 4.62504H8.00001V5.75004H4.62501V4.62504ZM4.62501 11.375H11.375V12.5H4.62501V11.375Z" fill="white"/>
</svg>
