<svg width="21" height="21" viewBox="0 0 21 21" fill="none" xmlns="http://www.w3.org/2000/svg">
<path d="M5.37783 15.0546C5.55 14.5667 5.86928 14.1441 6.29167 13.8453C6.71405 13.5464 7.21874 13.3859 7.73617 13.3859C8.25359 13.3859 8.75828 13.5464 9.18067 13.8453C9.60305 14.1441 9.92233 14.5667 10.0945 15.0546H18.5695V16.7213H10.0945C9.92233 17.2092 9.60305 17.6318 9.18067 17.9306C8.75828 18.2295 8.25359 18.39 7.73617 18.39C7.21874 18.39 6.71405 18.2295 6.29167 17.9306C5.86928 17.6318 5.55 17.2092 5.37783 16.7213H1.90283V15.0546H5.37783ZM10.3778 9.22128C10.55 8.73334 10.8693 8.31081 11.2917 8.01194C11.714 7.71307 12.2187 7.55257 12.7362 7.55257C13.2536 7.55257 13.7583 7.71307 14.1807 8.01194C14.603 8.31081 14.9223 8.73334 15.0945 9.22128H18.5695V10.8879H15.0945C14.9223 11.3759 14.603 11.7984 14.1807 12.0973C13.7583 12.3962 13.2536 12.5567 12.7362 12.5567C12.2187 12.5567 11.714 12.3962 11.2917 12.0973C10.8693 11.7984 10.55 11.3759 10.3778 10.8879H1.90283V9.22128H10.3778ZM5.37783 3.38795C5.55 2.9 5.86928 2.47748 6.29167 2.17861C6.71405 1.87973 7.21874 1.71924 7.73617 1.71924C8.25359 1.71924 8.75828 1.87973 9.18067 2.17861C9.60305 2.47748 9.92233 2.9 10.0945 3.38795H18.5695V5.05461H10.0945C9.92233 5.54256 9.60305 5.96509 9.18067 6.26396C8.75828 6.56283 8.25359 6.72332 7.73617 6.72332C7.21874 6.72332 6.71405 6.56283 6.29167 6.26396C5.86928 5.96509 5.55 5.54256 5.37783 5.05461H1.90283V3.38795H5.37783ZM7.73617 5.05461C7.95718 5.05461 8.16914 4.96682 8.32542 4.81054C8.4817 4.65426 8.5695 4.44229 8.5695 4.22128C8.5695 4.00027 8.4817 3.78831 8.32542 3.63202C8.16914 3.47574 7.95718 3.38795 7.73617 3.38795C7.51515 3.38795 7.30319 3.47574 7.14691 3.63202C6.99063 3.78831 6.90283 4.00027 6.90283 4.22128C6.90283 4.44229 6.99063 4.65426 7.14691 4.81054C7.30319 4.96682 7.51515 5.05461 7.73617 5.05461ZM12.7362 10.8879C12.9572 10.8879 13.1691 10.8001 13.3254 10.6439C13.4817 10.4876 13.5695 10.2756 13.5695 10.0546C13.5695 9.8336 13.4817 9.62164 13.3254 9.46536C13.1691 9.30908 12.9572 9.22128 12.7362 9.22128C12.5152 9.22128 12.3032 9.30908 12.1469 9.46536C11.9906 9.62164 11.9028 9.8336 11.9028 10.0546C11.9028 10.2756 11.9906 10.4876 12.1469 10.6439C12.3032 10.8001 12.5152 10.8879 12.7362 10.8879ZM7.73617 16.7213C7.95718 16.7213 8.16914 16.6335 8.32542 16.4772C8.4817 16.3209 8.5695 16.109 8.5695 15.8879C8.5695 15.6669 8.4817 15.455 8.32542 15.2987C8.16914 15.1424 7.95718 15.0546 7.73617 15.0546C7.51515 15.0546 7.30319 15.1424 7.14691 15.2987C6.99063 15.455 6.90283 15.6669 6.90283 15.8879C6.90283 16.109 6.99063 16.3209 7.14691 16.4772C7.30319 16.6335 7.51515 16.7213 7.73617 16.7213Z" fill="white"/>
</svg>
