<svg width="20" height="20" viewBox="0 0 20 20" fill="none" xmlns="http://www.w3.org/2000/svg">
<path d="M3.25 1.75C2.828 1.7655 2.4765 1.914 2.1955 2.1955C1.9145 2.477 1.766 2.8285 1.75 3.25V16.75C1.7655 17.172 1.914 17.5235 2.1955 17.8045C2.477 18.0855 2.8285 18.234 3.25 18.25H16.75C17.172 18.2345 17.5235 18.086 17.8045 17.8045C18.0855 17.523 18.234 17.1715 18.25 16.75V3.25C18.2345 2.828 18.086 2.4765 17.8045 2.1955C17.523 1.9145 17.1715 1.766 16.75 1.75H3.25ZM3.25 0.25H16.75C17.594 0.2655 18.301 0.5585 18.871 1.129C19.441 1.6995 19.734 2.4065 19.75 3.25V16.75C19.7345 17.594 19.4415 18.301 18.871 18.871C18.3005 19.441 17.5935 19.734 16.75 19.75H3.25C2.406 19.7345 1.699 19.4415 1.129 18.871C0.559 18.3005 0.266 17.5935 0.25 16.75V3.25C0.2655 2.406 0.5585 1.699 1.129 1.129C1.6995 0.559 2.4065 0.266 3.25 0.25ZM7 7.75C7.422 7.7345 7.7735 7.586 8.0545 7.3045C8.3355 7.023 8.47625 6.6715 8.47675 6.25C8.47725 5.8285 8.3365 5.477 8.0545 5.1955C7.7725 4.914 7.421 4.77325 7 4.77325C6.579 4.77325 6.2275 4.914 5.9455 5.1955C5.6635 5.477 5.52275 5.8285 5.52325 6.25C5.52375 6.6715 5.6645 7.023 5.9455 7.3045C6.2265 7.586 6.578 7.7345 7 7.75ZM7 9.25C6.156 9.2345 5.449 8.9415 4.879 8.371C4.309 7.8005 4.016 7.0935 4 6.25C4.0155 5.406 4.3085 4.699 4.879 4.129C5.4495 3.559 6.1565 3.266 7 3.25C7.844 3.2655 8.551 3.5585 9.121 4.129C9.691 4.6995 9.984 5.4065 10 6.25C9.9845 7.094 9.6915 7.801 9.121 8.371C8.5505 8.941 7.8435 9.234 7 9.25ZM9.25 5.5H15.25C15.75 5.5 16 5.75 16 6.25C16 6.75 15.75 7 15.25 7H9.25C8.75 7 8.5 6.75 8.5 6.25C8.5 5.75 8.75 5.5 9.25 5.5ZM13 15.25C13.422 15.2345 13.7735 15.086 14.0545 14.8045C14.3355 14.523 14.4762 14.1715 14.4767 13.75C14.4773 13.3285 14.3365 12.977 14.0545 12.6955C13.7725 12.414 13.421 12.2732 13 12.2733C12.579 12.2733 12.2275 12.414 11.9455 12.6955C11.6635 12.977 11.5227 13.3285 11.5233 13.75C11.5238 14.1715 11.6645 14.523 11.9455 14.8045C12.2265 15.086 12.578 15.2345 13 15.25ZM13 16.75C12.156 16.7345 11.449 16.4415 10.879 15.871C10.309 15.3005 10.016 14.5935 10 13.75C10.0155 12.906 10.3085 12.199 10.879 11.629C11.4495 11.059 12.1565 10.766 13 10.75C13.844 10.7655 14.551 11.0585 15.121 11.629C15.691 12.1995 15.984 12.9065 16 13.75C15.9845 14.594 15.6915 15.301 15.121 15.871C14.5505 16.441 13.8435 16.734 13 16.75ZM4.75 13H10.75C11.25 13 11.5 13.25 11.5 13.75C11.5 14.25 11.25 14.5 10.75 14.5H4.75C4.25 14.5 4 14.25 4 13.75C4 13.25 4.25 13 4.75 13Z" fill="white"/>
</svg>
