<svg width="18" height="18" viewBox="0 0 18 18" fill="none" xmlns="http://www.w3.org/2000/svg">
<path d="M16.0744 7.02427C16.7446 7.40996 17.2504 7.9355 17.5917 8.60089C17.933 9.26628 18.0603 9.98127 17.9737 10.7458C17.8871 11.5104 17.6056 12.1822 17.1292 12.7612C16.6529 13.3401 16.0466 13.7493 15.3104 13.9885C15.0291 15.186 14.4295 16.1473 13.5115 16.8723C12.5934 17.5973 11.5181 17.9732 10.2854 18H8.35587C8.16807 18 8.01393 17.9402 7.89344 17.8206C7.77295 17.7009 7.71271 17.5479 7.71271 17.3614C7.71271 17.175 7.77295 17.0219 7.89344 16.9023C8.01393 16.7827 8.16807 16.7229 8.35587 16.7229H10.2854C11.1163 16.7097 11.86 16.4736 12.5165 16.0147C13.1729 15.5558 13.642 14.9404 13.9237 14.1686H13.5018C13.314 14.1686 13.1599 14.1088 13.0394 13.9891C12.9189 13.8695 12.8586 13.7165 12.8586 13.53V7.14432C12.8586 6.95785 12.9189 6.80481 13.0394 6.68518C13.1599 6.56556 13.314 6.50575 13.5018 6.50575H14.145C14.3594 6.50575 14.5671 6.51916 14.7682 6.54598C14.5804 5.05598 13.9539 3.83206 12.8889 2.8742C11.8238 1.91635 10.5274 1.42401 8.99968 1.39719C7.47196 1.42401 6.17556 1.91635 5.11048 2.8742C4.04541 3.83206 3.41897 5.05598 3.23117 6.54598C3.43226 6.51916 3.64 6.50575 3.85439 6.50575H4.49755C4.68535 6.50575 4.8395 6.56556 4.95998 6.68518C5.08047 6.80481 5.14071 6.95785 5.14071 7.14432V13.53C5.14071 13.7165 5.08047 13.8695 4.95998 13.9891C4.8395 14.1088 4.68535 14.1686 4.49755 14.1686H3.85439C2.95654 14.1554 2.17274 13.8927 1.50299 13.3806C0.833246 12.8685 0.381104 12.1833 0.146565 11.325C-0.0879746 10.4668 -0.0410238 9.64857 0.287417 8.87037C0.615858 8.09217 1.1619 7.4768 1.92555 7.02427C1.97915 5.02852 2.66926 3.36888 3.99588 2.04534C5.32251 0.721796 6.99066 0.040017 9.00032 0C11.0104 0.040017 12.6786 0.721796 14.0048 2.04534C15.331 3.36888 16.0211 5.02852 16.0751 7.02427H16.0744ZM3.85439 7.78225C3.13062 7.79544 2.52433 8.04491 2.03553 8.53065C1.54673 9.01639 1.29546 9.61835 1.28174 10.3365C1.29504 11.0551 1.5463 11.6571 2.03553 12.1424C2.52476 12.6277 3.13105 12.8772 3.85439 12.8908V7.78225ZM16.7176 10.3365C16.7043 9.61792 16.4531 9.01596 15.9638 8.53065C15.4746 8.04534 14.8683 7.79587 14.145 7.78225V12.8908C14.8687 12.8776 15.475 12.6281 15.9638 12.1424C16.4526 11.6567 16.7039 11.0547 16.7176 10.3365Z" fill="#01C400"/>
</svg>
