<svg width="20" height="20" viewBox="0 0 20 20" fill="none" xmlns="http://www.w3.org/2000/svg">
<path d="M3.75 8.08618V17.5006H16.25V8.08618L10 2.87118L3.75 8.08618ZM2.73438 7.30493L9.60938 1.58243C9.72646 1.49118 9.85667 1.44556 10 1.44556C10.1433 1.44556 10.2735 1.49118 10.3906 1.58243L17.2656 7.30493C17.4219 7.43535 17.5 7.59806 17.5 7.79306V18.1249C17.5 18.3074 17.4415 18.4572 17.3244 18.5743C17.2073 18.6914 17.0575 18.7499 16.875 18.7499H3.125C2.9425 18.7499 2.79271 18.6914 2.67563 18.5743C2.55854 18.4572 2.5 18.3074 2.5 18.1249V7.79306C2.5 7.59764 2.57812 7.43493 2.73438 7.30493Z" fill="#55B520"/>
</svg>
