<svg width="20" height="20" viewBox="0 0 20 20" fill="none" xmlns="http://www.w3.org/2000/svg">
<path d="M9.03337 10L7.07812 8.06606C6.94933 7.9226 6.88494 7.75783 6.88494 7.57175C6.88494 7.38567 6.953 7.22456 7.08912 7.08844C7.22525 6.95231 7.38635 6.88425 7.57244 6.88425C7.75852 6.88425 7.92329 6.94865 8.06675 7.07744L10.0007 9.03269L11.9346 7.07744C12.1354 6.89135 12.3609 6.83406 12.6111 6.90556C12.8614 6.97706 13.0225 7.13817 13.0944 7.38888C13.1664 7.63958 13.1091 7.86508 12.9226 8.06537L10.9673 9.99931L12.9226 11.9333C13.1086 12.134 13.1659 12.3595 13.0944 12.6097C13.0229 12.86 12.8618 13.0211 12.6111 13.0931C12.3604 13.165 12.1349 13.1077 11.9346 12.9212L10.0007 10.9659L8.06675 12.9212C7.92329 13.05 7.75852 13.1144 7.57244 13.1144C7.38635 13.1144 7.22525 13.0463 7.08912 12.9102C6.953 12.7741 6.88494 12.613 6.88494 12.4269C6.88494 12.2408 6.94933 12.076 7.07812 11.9326L9.03337 10ZM10 18.25C12.3348 18.1927 14.279 17.387 15.8327 15.8327C17.3865 14.2785 18.1922 12.3343 18.25 10C18.1927 7.66525 17.387 5.721 15.8327 4.16725C14.2785 2.6135 12.3343 1.80775 10 1.75C7.66525 1.80729 5.721 2.61304 4.16725 4.16725C2.6135 5.72146 1.80775 7.66571 1.75 10C1.80729 12.3348 2.61304 14.279 4.16725 15.8327C5.72146 17.3865 7.66571 18.1922 10 18.25ZM10 19.625C7.27842 19.5535 5.01173 18.6119 3.19994 16.8001C1.38815 14.9883 0.4465 12.7216 0.375 10C0.4465 7.27842 1.38815 5.01173 3.19994 3.19994C5.01173 1.38815 7.27842 0.4465 10 0.375C12.7216 0.4465 14.9883 1.38815 16.8001 3.19994C18.6119 5.01173 19.5535 7.27842 19.625 10C19.5535 12.7216 18.6119 14.9883 16.8001 16.8001C14.9883 18.6119 12.7216 19.5535 10 19.625Z" fill="white"/>
</svg>
