<svg width="22" height="22" viewBox="0 0 22 22" fill="none" xmlns="http://www.w3.org/2000/svg">
<path d="M11 0.5C11.422 0.5155 11.7735 0.664 12.0545 0.9455C12.3355 1.227 12.484 1.5785 12.5 2V3.5H9.5V2C9.5155 1.578 9.664 1.2265 9.9455 0.9455C10.227 0.6645 10.5785 0.516 11 0.5ZM5 17H17V9.5C16.953 7.797 16.367 6.383 15.242 5.258C14.117 4.133 12.703 3.547 11 3.5C9.297 3.547 7.883 4.133 6.758 5.258C5.633 6.383 5.047 7.797 5 9.5V17ZM11 2C13.125 2.047 14.8945 2.7775 16.3085 4.1915C17.7225 5.6055 18.453 7.375 18.5 9.5V18.5H3.5V9.5C3.547 7.375 4.2775 5.6055 5.6915 4.1915C7.1055 2.7775 8.875 2.047 11 2ZM1.25 17H20.75C21.25 17 21.5 17.25 21.5 17.75C21.5 18.25 21.25 18.5 20.75 18.5H1.25C0.75 18.5 0.5 18.25 0.5 17.75C0.5 17.25 0.75 17 1.25 17ZM9.5 20H12.5C12.4845 20.422 12.336 20.7735 12.0545 21.0545C11.773 21.3355 11.4215 21.4762 11 21.4767C10.5785 21.4772 10.227 21.3365 9.9455 21.0545C9.664 20.7725 9.5155 20.421 9.5 20Z" fill="white"/>
</svg>
