<svg width="12" height="14" viewBox="0 0 12 14" fill="none" xmlns="http://www.w3.org/2000/svg">
<path d="M6 7C6.85433 6.979 7.56267 6.68733 8.125 6.125C8.68733 5.56267 8.979 4.85433 9 4C8.979 3.14567 8.68733 2.43733 8.125 1.875C7.56267 1.31267 6.85433 1.021 6 1C5.14567 1.021 4.43733 1.31267 3.875 1.875C3.31267 2.43733 3.021 3.14567 3 4C3.021 4.85433 3.31267 5.56267 3.875 6.125C4.43733 6.68733 5.14567 6.979 6 7ZM6 8C4.86467 7.96867 3.922 7.578 3.172 6.828C2.422 6.078 2.03133 5.13533 2 4C2.03133 2.86467 2.422 1.922 3.172 1.172C3.922 0.422 4.86467 0.0313333 6 0C7.13533 0.0313333 8.078 0.422 8.828 1.172C9.578 1.922 9.96867 2.86467 10 4C9.96867 5.13533 9.578 6.078 8.828 6.828C8.078 7.578 7.13533 7.96867 6 8ZM11 13V11.5C10.9897 11.073 10.8438 10.7188 10.5625 10.4375C10.2812 10.1562 9.927 10.0103 9.5 10H2.5C2.073 10.0103 1.71883 10.1562 1.4375 10.4375C1.15617 10.7188 1.01033 11.073 1 11.5V13C1 13.146 0.953167 13.2658 0.8595 13.3595C0.765833 13.4532 0.646 13.5 0.5 13.5C0.354 13.5 0.234167 13.4532 0.1405 13.3595C0.0468334 13.2658 0 13.146 0 13V11.5C0.021 10.7917 0.265833 10.2032 0.7345 9.7345C1.20317 9.26583 1.79167 9.021 2.5 9H9.5C10.2083 9.021 10.7968 9.26583 11.2655 9.7345C11.7342 10.2032 11.979 10.7917 12 11.5V13C12 13.146 11.9532 13.2658 11.8595 13.3595C11.7658 13.4532 11.646 13.5 11.5 13.5C11.354 13.5 11.2342 13.4532 11.1405 13.3595C11.0468 13.2658 11 13.146 11 13Z" fill="#55B520"/>
</svg>
