<svg width="20" height="20" viewBox="0 0 20 20" fill="none" xmlns="http://www.w3.org/2000/svg">
<path d="M3.125 4.25C2.9425 4.25 2.79271 4.30854 2.67563 4.42563C2.55854 4.54271 2.5 4.6925 2.5 4.875V14.875C2.5 15.0575 2.55854 15.2073 2.67563 15.3244C2.79271 15.4415 2.9425 15.5 3.125 15.5H16.875C17.0575 15.5 17.2073 15.4415 17.3244 15.3244C17.4415 15.2073 17.5 15.0575 17.5 14.875V4.875C17.5 4.6925 17.4415 4.54271 17.3244 4.42563C17.2073 4.30854 17.0575 4.25 16.875 4.25H3.125ZM3.125 3H16.875C17.4088 3.01292 17.8515 3.19521 18.2031 3.54688C18.5548 3.89854 18.7371 4.34125 18.75 4.875V14.875C18.7371 15.4087 18.5548 15.8515 18.2031 16.2031C17.8515 16.5548 17.4088 16.7371 16.875 16.75H3.125C2.59125 16.7371 2.14854 16.5548 1.79688 16.2031C1.44521 15.8515 1.26292 15.4087 1.25 14.875V4.875C1.26292 4.34125 1.44521 3.89854 1.79688 3.54688C2.14854 3.19521 2.59125 3.01292 3.125 3ZM13.75 6.125C14.1017 6.13792 14.3946 6.26167 14.6287 6.49625C14.8629 6.73083 14.9802 7.02375 14.9806 7.375C14.981 7.72625 14.8638 8.01917 14.6287 8.25375C14.3938 8.48833 14.1008 8.60562 13.75 8.60563C13.3992 8.60563 13.1062 8.48833 12.8713 8.25375C12.6362 8.01917 12.519 7.72625 12.5194 7.375C12.5198 7.02375 12.6371 6.73083 12.8713 6.49625C13.1054 6.26167 13.3983 6.13792 13.75 6.125ZM5.625 8.625H10.625C11.0417 8.625 11.25 8.83333 11.25 9.25C11.25 9.66667 11.0417 9.875 10.625 9.875H5.625C5.20833 9.875 5 9.66667 5 9.25C5 8.83333 5.20833 8.625 5.625 8.625ZM5.625 11.125H10.625C11.0417 11.125 11.25 11.3333 11.25 11.75C11.25 12.1667 11.0417 12.375 10.625 12.375H5.625C5.20833 12.375 5 12.1667 5 11.75C5 11.3333 5.20833 11.125 5.625 11.125Z" fill="white"/>
</svg>
