<svg width="20" height="20" viewBox="0 0 20 20" fill="none" xmlns="http://www.w3.org/2000/svg">
<path d="M10 2.50016C9.63547 2.51307 9.33588 2.63682 9.1013 2.87141C8.86672 3.10599 8.74297 3.39891 8.73005 3.75016V13.8477L5.3513 11.152C5.02588 10.8916 4.66463 10.7549 4.26755 10.742C3.87047 10.7291 3.49609 10.8397 3.14442 11.0739C2.96192 11.2302 2.8513 11.4256 2.81255 11.6602C2.7738 11.8947 2.82588 12.1095 2.9688 12.3045L6.5038 16.992C6.62088 17.1612 6.76734 17.2881 6.94317 17.3727C7.11901 17.4572 7.30463 17.4995 7.50005 17.4995H17.5V11.2302C17.5 10.9568 17.4186 10.7093 17.2557 10.4877C17.0928 10.266 16.8746 10.1162 16.6013 10.0383L12.5775 8.82703C12.1738 8.69661 11.8515 8.47203 11.6107 8.15328C11.3698 7.83453 11.2494 7.46016 11.2494 7.03016V3.74891C11.2365 3.39724 11.1128 3.10432 10.8782 2.87016C10.6436 2.63599 10.3507 2.51224 9.99942 2.49891L10 2.50016ZM7.01192 10.8789L7.48067 11.2502V3.75016C7.48067 3.29432 7.58817 2.8712 7.80317 2.48078C8.01817 2.09036 8.32422 1.77786 8.7213 1.54328C9.11838 1.3087 9.54151 1.19141 9.99067 1.19141C10.4398 1.19141 10.863 1.3087 11.26 1.54328C11.6571 1.77786 11.9632 2.09036 12.1782 2.48078C12.3932 2.8712 12.5007 3.29432 12.5007 3.75016V7.03141C12.5007 7.17474 12.5398 7.30161 12.6182 7.41203C12.6965 7.52245 12.8071 7.59724 12.95 7.63641L16.9738 8.84766C17.5075 9.01682 17.934 9.31641 18.2532 9.74641C18.5723 10.1764 18.7384 10.6712 18.7513 11.2308V17.5002C18.7384 17.8518 18.6146 18.1447 18.38 18.3789C18.1455 18.6131 17.8525 18.7368 17.5013 18.7502H7.5013C7.09755 18.7502 6.72317 18.6622 6.37817 18.4864C6.03317 18.3106 5.74338 18.0664 5.5088 17.7539L1.9738 13.047C1.80463 12.8124 1.68422 12.5554 1.61255 12.2758C1.54088 11.9962 1.53109 11.7097 1.58317 11.4164C1.63526 11.1231 1.73942 10.8562 1.89567 10.6158C2.05192 10.3754 2.2538 10.1768 2.5013 10.0202C3.07422 9.64266 3.68942 9.47016 4.34692 9.50266C5.00442 9.53516 5.60005 9.75974 6.1338 10.1764L7.01192 10.8789Z" fill="#01C400"/>
</svg>
