<svg width="26" height="26" viewBox="0 0 26 26" fill="none" xmlns="http://www.w3.org/2000/svg">
<path d="M13 0.75C16.4638 0.841 19.3487 2.03946 21.6546 4.34538C23.9605 6.65129 25.159 9.53617 25.25 13C25.159 16.4638 23.9605 19.3487 21.6546 21.6546C19.3487 23.9605 16.4638 25.159 13 25.25C9.53617 25.159 6.65129 23.9605 4.34538 21.6546C2.03946 19.3487 0.841 16.4638 0.75 13C0.841 9.53617 2.03946 6.65129 4.34538 4.34538C6.65129 2.03946 9.53617 0.841 13 0.75ZM11.4688 15.4062L8.7615 12.699C8.54275 12.4983 8.29221 12.398 8.00987 12.398C7.72754 12.398 7.48138 12.5027 7.27138 12.7121C7.06138 12.9215 6.95667 13.163 6.95725 13.4366C6.95783 13.7102 7.05817 13.9564 7.25825 14.1751L10.7311 17.648C10.9318 17.8487 11.178 17.949 11.4696 17.949C11.7613 17.949 12.0075 17.8487 12.2081 17.648L19.3997 10.4564C19.6733 10.1828 19.76 9.85 19.6596 9.458C19.5593 9.066 19.3131 8.81983 18.9211 8.7195C18.5291 8.61917 18.1963 8.70579 17.9227 8.97937L11.4688 15.4062Z" fill="#01C400"/>
</svg>
