<svg width="16" height="16" viewBox="0 0 16 16" fill="none" xmlns="http://www.w3.org/2000/svg">
<path d="M12.4375 11.7345L14.3905 13.6875C14.4842 13.7918 14.531 13.909 14.531 14.039C14.531 14.169 14.4815 14.2837 14.3825 14.383C14.2835 14.4823 14.1688 14.5318 14.0385 14.5315C13.9082 14.5312 13.791 14.4843 13.687 14.391L11.734 12.438C10.3487 13.5733 8.81217 14.0915 7.1245 13.9925C5.43683 13.8935 3.97333 13.2033 2.734 11.922C1.54633 10.5783 0.968166 9.06267 0.999499 7.375C1.03083 5.68733 1.66633 4.19767 2.906 2.906C4.19767 1.66633 5.68733 1.03083 7.375 0.999499C9.06267 0.968166 10.5783 1.54633 11.922 2.734C13.2033 3.97367 13.8935 5.43717 13.9925 7.1245C14.0915 8.81183 13.5733 10.3483 12.438 11.734L12.4375 11.7345ZM7.5 13C9.06267 12.9583 10.3595 12.4218 11.3905 11.3905C12.4215 10.3592 12.958 9.06233 13 7.5C12.9583 5.93733 12.4218 4.6405 11.3905 3.6095C10.3592 2.5785 9.06233 2.042 7.5 2C5.93733 2.04167 4.6405 2.57817 3.6095 3.6095C2.5785 4.64083 2.042 5.93767 2 7.5C2.04167 9.06267 2.57817 10.3595 3.6095 11.3905C4.64083 12.4215 5.93767 12.958 7.5 13Z" fill="white"/>
</svg>
