<svg width="16" height="17" viewBox="0 0 16 17" fill="none" xmlns="http://www.w3.org/2000/svg">
<path d="M9.98609 0.125L13.8887 2.375L13.1327 3.6935C13.3907 3.99837 13.6251 4.33231 13.8358 4.69531C14.0466 5.05831 14.2225 5.43331 14.3635 5.82031H15.8755V10.3203H14.3635C14.0822 11.1056 13.672 11.8145 13.1327 12.4471L13.8887 13.7656L9.98609 16.0156L9.23009 14.6971C8.40959 14.8494 7.58928 14.8494 6.76915 14.6971L6.01315 16.0156L2.11053 13.7656L2.86653 12.4471C2.5969 12.1306 2.35953 11.7937 2.1544 11.4363C1.94928 11.0789 1.7764 10.7069 1.63578 10.3203H0.123779V5.82031H1.63578C1.91703 5.03506 2.32728 4.32613 2.86653 3.6935L2.11053 2.375L6.01315 0.125L6.76915 1.4435C7.58965 1.29125 8.40997 1.29125 9.23009 1.4435L9.98609 0.125ZM10.408 1.65444L10.197 2.006L9.81003 2.69169L9.01915 2.55106C8.33928 2.42206 7.65959 2.42206 6.98009 2.55106L6.18922 2.69169L5.59128 1.65444L3.6574 2.77944L4.23734 3.81669L3.72772 4.41463C3.28222 4.94188 2.94228 5.53362 2.7079 6.18987L2.44409 6.94588H1.24878V9.19588H2.42665L2.7079 9.95187C2.82528 10.2916 2.9659 10.6021 3.12978 10.8834C3.29365 11.1646 3.49297 11.4459 3.72772 11.7271L4.23734 12.3251L3.6574 13.3623L5.59128 14.4873L6.18922 13.4501L6.98009 13.5907C7.65997 13.7197 8.33965 13.7197 9.01915 13.5907L9.81003 13.4501L10.408 14.4873L12.3418 13.3623L11.7619 12.3251L12.2715 11.7271C12.717 11.1879 13.057 10.5961 13.2913 9.95187L13.5552 9.19588H14.7505V6.94588H13.5726L13.2913 6.18987C13.186 5.87337 13.0453 5.56569 12.8695 5.26681C12.6936 4.96794 12.4943 4.68369 12.2715 4.41406L11.7619 3.81613L12.3418 2.77887L10.408 1.65444ZM7.9999 4.13281C9.11328 4.15644 10.042 4.54025 10.786 5.28425C11.53 6.02825 11.9138 6.95694 11.9374 8.07031C11.9138 9.18369 11.53 10.1124 10.786 10.8564C10.042 11.6004 9.11328 11.9842 7.9999 12.0078C6.88653 11.9842 5.95784 11.6004 5.21384 10.8564C4.46984 10.1124 4.08603 9.18369 4.0624 8.07031C4.08603 6.95694 4.46984 6.02825 5.21384 5.28425C5.95784 4.54025 6.88653 4.15644 7.9999 4.13281ZM7.9999 5.25781C7.20303 5.28144 6.54097 5.55687 6.01372 6.08413C5.48647 6.61137 5.21103 7.27344 5.1874 8.07031C5.21103 8.86719 5.48647 9.52925 6.01372 10.0565C6.54097 10.5837 7.20303 10.8592 7.9999 10.8828C8.79678 10.8592 9.45884 10.5837 9.98609 10.0565C10.5133 9.52925 10.7888 8.86719 10.8124 8.07031C10.7888 7.27344 10.5133 6.61137 9.98609 6.08413C9.45884 5.55687 8.79678 5.28144 7.9999 5.25781Z" fill="white"/>
</svg>
