<svg width="20" height="20" viewBox="0 0 20 20" fill="none" xmlns="http://www.w3.org/2000/svg">
<path d="M5.24113 0.535733C5.24113 0.379299 5.29403 0.250902 5.39982 0.150541C5.50561 0.0501803 5.64095 0 5.80585 0C5.97075 0 6.10609 0.0501803 6.21188 0.150541C6.31767 0.250902 6.37057 0.379299 6.37057 0.535733V13.7116C6.37057 13.8234 6.33819 13.921 6.27344 14.0046C6.20868 14.0882 6.12341 14.1523 6.01762 14.1969C5.91183 14.2416 5.80303 14.2528 5.69121 14.2307C5.5794 14.2085 5.48227 14.1584 5.39982 14.0801L0.158685 9.108C0.0528951 9.00764 0 8.8821 0 8.73138C0 8.58066 0.0528951 8.45512 0.158685 8.35476C0.276523 8.24297 0.408855 8.18708 0.555681 8.18708C0.702507 8.18708 0.834839 8.24297 0.952677 8.35476L5.24113 12.4231V0.536269V0.535733ZM8.62943 1.28897C8.62943 1.17718 8.66181 1.0795 8.72656 0.995928C8.79132 0.912354 8.87659 0.848245 8.98238 0.8036C9.08817 0.758956 9.19697 0.747705 9.30879 0.769849C9.4206 0.791993 9.51773 0.842173 9.60018 0.92039L14.8413 5.89253C14.9471 5.99289 15 6.11843 15 6.26915C15 6.41987 14.9471 6.54541 14.8413 6.64577C14.7235 6.75756 14.5911 6.81346 14.4443 6.81346C14.2975 6.81346 14.1652 6.75756 14.0473 6.64577L9.75887 2.57741V14.4643C9.75887 14.6207 9.70597 14.7491 9.60018 14.8495C9.49439 14.9498 9.35905 15 9.19415 15C9.02925 15 8.89391 14.9498 8.78812 14.8495C8.68233 14.7491 8.62943 14.6207 8.62943 14.4643V1.28844V1.28897Z" fill="white"/>
</svg>
