<svg width="18" height="18" viewBox="0 0 18 18" fill="none" xmlns="http://www.w3.org/2000/svg">
<path d="M3.375 2.25V15.75H14.625V2.25H3.375ZM2.8125 1.125H15.1875C15.3517 1.125 15.4866 1.17769 15.5919 1.28306C15.6973 1.38844 15.75 1.52325 15.75 1.6875V16.3125C15.75 16.4767 15.6973 16.6116 15.5919 16.7169C15.4866 16.8223 15.3517 16.875 15.1875 16.875H2.8125C2.64825 16.875 2.51344 16.8223 2.40806 16.7169C2.30269 16.6116 2.25 16.4767 2.25 16.3125V1.6875C2.25 1.52325 2.30269 1.38844 2.40806 1.28306C2.51344 1.17769 2.64825 1.125 2.8125 1.125ZM5.625 9H12.375V10.125H5.625V9ZM5.625 5.625H9V6.75H5.625V5.625ZM5.625 12.375H12.375V13.5H5.625V12.375Z" fill="white"/>
</svg>
