<svg width="22" height="22" viewBox="0 0 22 22" fill="none" xmlns="http://www.w3.org/2000/svg">
<path d="M4.8125 9.62475C4.61175 9.62475 4.44698 9.68914 4.31819 9.81793C4.1894 9.94673 4.125 10.1115 4.125 10.3122V18.5622C4.125 18.763 4.1894 18.9278 4.31819 19.0566C4.44698 19.1854 4.61175 19.2497 4.8125 19.2497H17.1875C17.3883 19.2497 17.553 19.1854 17.6818 19.0566C17.8106 18.9278 17.875 18.763 17.875 18.5622V10.3122C17.875 10.1115 17.8106 9.94673 17.6818 9.81793C17.553 9.68914 17.3883 9.62475 17.1875 9.62475H4.8125ZM4.8125 8.24975H17.1875C17.7746 8.26396 18.2616 8.46448 18.6484 8.85131C19.0353 9.23814 19.2358 9.72512 19.25 10.3122V18.5622C19.2358 19.1494 19.0353 19.6364 18.6484 20.0232C18.2616 20.41 17.7746 20.6105 17.1875 20.6247H4.8125C4.22538 20.6105 3.7384 20.41 3.35156 20.0232C2.96473 19.6364 2.76421 19.1494 2.75 18.5622V10.3122C2.76421 9.72512 2.96473 9.23814 3.35156 8.85131C3.7384 8.46448 4.22538 8.26396 4.8125 8.24975ZM11 11.6872C11.2008 11.6872 11.3655 11.7516 11.4943 11.8804C11.6231 12.0092 11.6875 12.174 11.6875 12.3747V16.4997C11.6875 16.7005 11.6231 16.8653 11.4943 16.9941C11.3655 17.1229 11.2008 17.1872 11 17.1872C10.7992 17.1872 10.6345 17.1229 10.5057 16.9941C10.3769 16.8653 10.3125 16.7005 10.3125 16.4997V12.3747C10.3125 12.174 10.3769 12.0092 10.5057 11.8804C10.6345 11.7516 10.7992 11.6872 11 11.6872ZM14.8246 5.34918C14.4377 4.41831 13.8217 3.72371 12.9766 3.26537C12.1314 2.80704 11.2147 2.66381 10.2266 2.83568C9.2384 3.03643 8.43631 3.50554 7.82031 4.243C7.20431 4.98046 6.88921 5.85771 6.875 6.87475V8.24975H14.4375L16.5 9.0665V9.62543H5.5V6.87543C5.52888 5.52885 5.94779 4.36148 6.75675 3.37331C7.56571 2.38514 8.63637 1.74783 9.96875 1.46137C11.2865 1.23221 12.5075 1.42562 13.6317 2.04162C14.756 2.65762 15.5831 3.58873 16.1129 4.83493L14.8246 5.34918Z" fill="#01C400"/>
</svg>
