<svg width="16" height="16" viewBox="0 0 16 16" fill="none" xmlns="http://www.w3.org/2000/svg">
<path d="M2.5 13H13.5C13.646 13 13.7658 13.0468 13.8595 13.1405C13.9532 13.2341 14 13.354 14 13.5C14 13.646 13.9532 13.7658 13.8595 13.8595C13.7658 13.9531 13.646 14 13.5 14H2.5C2.354 14 2.23417 13.9531 2.1405 13.8595C2.04683 13.7658 2 13.646 2 13.5C2 13.354 2.04683 13.2341 2.1405 13.1405C2.23417 13.0468 2.354 13 2.5 13ZM8.5 3.96898V11.0005H7.5V3.85998L3.703 7.65698L3 6.95398L7.953 2.00098L12.906 6.95398L12.187 7.65698L8.5 3.96898Z" fill="#01C400"/>
</svg>
