<svg width="40" height="40" viewBox="0 0 40 40" fill="none" xmlns="http://www.w3.org/2000/svg">
<path d="M20 0C25.6552 0.148571 30.3652 2.10524 34.13 5.87C37.8948 9.63476 39.8514 14.3448 40 20C39.8514 25.6552 37.8948 30.3652 34.13 34.13C30.3652 37.8948 25.6552 39.8514 20 40C14.3448 39.8514 9.63476 37.8948 5.87 34.13C2.10524 30.3652 0.148571 25.6552 0 20C0.148571 14.3448 2.10524 9.63476 5.87 5.87C9.63476 2.10524 14.3448 0.148571 20 0ZM20 37.1429C24.8514 37.0238 28.8914 35.3495 32.12 32.12C35.3486 28.8905 37.0229 24.8505 37.1429 20C37.0238 15.1486 35.3495 11.1086 32.12 7.88C28.8905 4.65143 24.8505 2.97714 20 2.85714C15.1486 2.97619 11.1086 4.65048 7.88 7.88C4.65143 11.1095 2.97714 15.1495 2.85714 20C2.97619 24.8514 4.65048 28.8914 7.88 32.12C11.1095 35.3486 15.1495 37.0229 20 37.1429ZM22.1429 29.2857C22.1133 29.881 21.8976 30.3795 21.4957 30.7814C21.0938 31.1833 20.5952 31.3843 20 31.3843C19.4048 31.3843 18.9062 31.1833 18.5043 30.7814C18.1024 30.3795 17.9014 29.881 17.9014 29.2857C17.9014 28.6905 18.1024 28.1919 18.5043 27.79C18.9062 27.3881 19.4048 27.1871 20 27.1871C20.5952 27.1871 21.0938 27.3881 21.4957 27.79C21.8976 28.1919 22.1133 28.6905 22.1429 29.2857ZM20 8.57143C20.4171 8.57143 20.7595 8.70524 21.0271 8.97286C21.2948 9.24048 21.4286 9.58286 21.4286 10V22.8571C21.4286 23.2743 21.2948 23.6167 21.0271 23.8843C20.7595 24.1519 20.4171 24.2857 20 24.2857C19.5829 24.2857 19.2405 24.1519 18.9729 23.8843C18.7052 23.6167 18.5714 23.2743 18.5714 22.8571V10C18.5714 9.58286 18.7052 9.24048 18.9729 8.97286C19.2405 8.70524 19.5829 8.57143 20 8.57143Z" fill="white"/>
</svg>
