<svg width="162" height="168" viewBox="0 0 162 168" fill="none" xmlns="http://www.w3.org/2000/svg">
<g clip-path="url(#clip0_554_287)">
<path d="M143.927 127.853L143.923 127.929L147.727 168H119.973L116.376 143.389L114.792 167.369L86.2915 167.053L89.3189 135.57L91.8935 120.978V120.974L92.2799 118.778H143.17L143.236 119.573L143.927 127.853Z" fill="#67667A"/>
<path d="M70.582 151.082C73.5213 151.616 76.5863 148.318 77.4278 143.715C77.7962 141.701 77.6773 139.77 77.1807 138.192L77.6314 135.539L85.1947 99.8503C85.1947 99.8503 99.1223 72.092 99.1219 67.273C99.1215 62.4541 95.0931 60.0908 95.0931 60.0908L89.6417 60.1416L72.5466 101.742L69.4678 132.484L68.9697 136.701C67.9464 138.004 67.1519 139.769 66.7836 141.783C65.9421 146.385 67.6427 150.549 70.582 151.082Z" fill="#FFB6B6"/>
<path d="M126.034 42.8951L120.968 31.2207L104.5 34.0604L103.392 47.7956L126.034 42.8951Z" fill="#FFB6B6"/>
<path opacity="0.1" d="M126.034 42.8951L120.968 31.2207L104.5 34.0604L103.392 47.7956L126.034 42.8951Z" fill="black"/>
<path d="M161.819 67.1905C161.819 67.1905 150.102 45.4193 147.885 43.2107C146.898 42.2274 145.347 42.2138 143.929 42.5003L127.618 36.9002L122.089 33.8052L121.725 39.6935L103.575 42.9394C103.675 39.3485 104.184 37.9826 104.184 37.9826L97.5336 45.7349L84.5498 52.0453L84.5569 52.1022C83.6041 52.4335 82.7008 53.0006 82.0164 53.9385C79.483 57.4092 72.5161 99.6894 72.5161 99.6894L87.3999 102.845L89.4255 90.1797L90.8834 101.583L91.9917 122.88C91.9917 122.88 112.259 140.234 122.076 133.924C131.893 127.613 143.927 127.929 143.927 127.929L144.227 118.057C144.441 117.716 144.56 117.516 144.56 117.516L144.243 82.4983V73.1803C146.656 76.5291 149.567 79.409 152.952 80.758C164.036 85.1753 161.819 67.1905 161.819 67.1905V67.1905Z" fill="#E6E6E6"/>
<path d="M111.013 36.1141C119.38 36.1141 126.162 29.3562 126.162 21.0199C126.162 12.6837 119.38 5.92578 111.013 5.92578C102.646 5.92578 95.8638 12.6837 95.8638 21.0199C95.8638 29.3562 102.646 36.1141 111.013 36.1141Z" fill="#FFB6B6"/>
<path d="M121.881 25.2859C121.881 25.2859 123.198 20.692 126.162 21.0202C129.126 21.3483 129.785 18.7232 129.126 17.4107C128.467 16.0981 127.15 9.53546 127.15 9.53546C127.15 9.53546 127.809 4.94158 123.857 4.28532C119.905 3.62905 118.587 2.97278 117.929 1.66024C117.27 0.347705 107.39 -0.964832 104.097 1.00398C100.803 2.97278 98.1687 6.75019 95.8634 7.8147C93.5581 8.87919 91.5821 10.848 92.8994 14.1293C94.2167 17.4107 96.1273 23.8283 96.1273 23.8283C96.1273 23.8283 99.4861 22.6608 100.145 24.6296C100.803 26.5984 98.1687 23.9734 101.462 18.7232C104.755 13.4731 104.755 8.22292 110.025 10.1917C115.294 12.1605 121.222 11.5043 120.563 15.4419C119.905 19.3795 121.881 25.2859 121.881 25.2859V25.2859Z" fill="#2F2E41"/>
<path d="M120.955 144.947H5.90071C2.64699 144.947 0 142.309 0 139.067V78.1736C0 74.932 2.64699 72.2944 5.90071 72.2944H120.955C124.208 72.2944 126.855 74.932 126.855 78.1736V139.067C126.855 142.309 124.208 144.947 120.955 144.947Z" fill="white"/>
<path d="M120.955 144.947H5.90071C2.64699 144.947 0 142.309 0 139.067V78.1736C0 74.932 2.64699 72.2944 5.90071 72.2944H120.955C124.208 72.2944 126.855 74.932 126.855 78.1736V139.067C126.855 142.309 124.208 144.947 120.955 144.947ZM5.90071 73.2762C3.19044 73.2762 0.985375 75.4733 0.985375 78.1736V139.067C0.985375 141.768 3.19044 143.965 5.90071 143.965H120.955C123.665 143.965 125.87 141.768 125.87 139.067V78.1736C125.87 75.4733 123.665 73.2762 120.955 73.2762H5.90071Z" fill="#8583A0"/>
<path d="M112.075 79.6578C112.891 79.6578 113.553 78.9984 113.553 78.1851C113.553 77.3717 112.891 76.7124 112.075 76.7124C111.258 76.7124 110.597 77.3717 110.597 78.1851C110.597 78.9984 111.258 79.6578 112.075 79.6578Z" fill="#8583A0"/>
<path d="M116.016 79.6578C116.832 79.6578 117.494 78.9984 117.494 78.1851C117.494 77.3717 116.832 76.7124 116.016 76.7124C115.2 76.7124 114.538 77.3717 114.538 78.1851C114.538 78.9984 115.2 79.6578 116.016 79.6578Z" fill="#8583A0"/>
<path d="M119.958 79.6578C120.774 79.6578 121.436 78.9984 121.436 78.1851C121.436 77.3717 120.774 76.7124 119.958 76.7124C119.141 76.7124 118.479 77.3717 118.479 78.1851C118.479 78.9984 119.141 79.6578 119.958 79.6578Z" fill="#8583A0"/>
<path d="M8.37575 101.994C7.96823 101.994 7.63672 102.324 7.63672 102.73C7.63672 102.928 7.71346 103.111 7.85275 103.246C7.99324 103.39 8.17728 103.466 8.37575 103.466H118.972C119.38 103.466 119.711 103.136 119.711 102.73C119.711 102.532 119.635 102.349 119.495 102.214C119.355 102.07 119.171 101.994 118.972 101.994H8.37575Z" fill="#E6E6E6"/>
<path d="M105.177 101.748V103.712H8.37552C8.10454 103.712 7.8582 103.604 7.68084 103.422C7.49851 103.245 7.39014 103 7.39014 102.73C7.39014 102.19 7.83357 101.748 8.37551 101.748H105.177Z" fill="#01C400"/>
<path d="M117.741 98.0663H107.887C106.8 98.0663 105.916 97.1857 105.916 96.1027C105.916 95.0198 106.8 94.1392 107.887 94.1392H117.741C118.827 94.1392 119.711 95.0198 119.711 96.1027C119.711 97.1857 118.827 98.0663 117.741 98.0663Z" fill="#E6E6E6"/>
<path d="M53.1984 87.7577H9.1148C8.02814 87.7577 7.14404 86.8771 7.14404 85.7941C7.14404 84.7112 8.02814 83.8306 9.1148 83.8306H53.1984C54.2851 83.8306 55.1692 84.7112 55.1692 85.7941C55.1692 86.8771 54.2851 87.7577 53.1984 87.7577Z" fill="#E6E6E6"/>
<path d="M8.37575 124.083C7.96823 124.083 7.63672 124.414 7.63672 124.82C7.63672 125.018 7.71346 125.201 7.85275 125.336C7.99324 125.479 8.17728 125.556 8.37575 125.556H118.972C119.38 125.556 119.711 125.226 119.711 124.82C119.711 124.622 119.635 124.439 119.495 124.304C119.355 124.16 119.171 124.083 118.972 124.083H8.37575Z" fill="#E6E6E6"/>
<path d="M67.2398 123.838V125.802H8.37551C8.10454 125.802 7.8582 125.694 7.68084 125.512C7.49851 125.336 7.39014 125.09 7.39014 124.82C7.39014 124.28 7.83357 123.838 8.37551 123.838H67.2398Z" fill="#01C400"/>
<path d="M117.741 120.157H107.887C106.8 120.157 105.916 119.276 105.916 118.193C105.916 117.11 106.8 116.229 107.887 116.229H117.741C118.827 116.229 119.711 117.11 119.711 118.193C119.711 119.276 118.827 120.157 117.741 120.157Z" fill="#E6E6E6"/>
<path d="M134.991 37.2761C143.513 37.2761 150.422 30.5378 150.422 22.2257C150.422 13.9136 143.513 7.17529 134.991 7.17529C126.469 7.17529 119.561 13.9136 119.561 22.2257C119.561 30.5378 126.469 37.2761 134.991 37.2761Z" fill="#01C400"/>
<path d="M140.228 14.6342C138.174 18.3612 136.119 22.0882 134.065 25.8153C132.756 23.5104 131.454 21.2014 130.141 18.8983C129.688 18.1029 128.455 18.8183 128.909 19.6157C130.431 22.2855 131.937 24.9642 133.458 27.634C133.718 28.0905 134.432 28.1011 134.69 27.634C136.947 23.5399 139.203 19.4457 141.46 15.3516C141.902 14.5494 140.671 13.8313 140.228 14.6342Z" fill="white"/>
<path d="M156.292 61.8967L140.918 54.5691C140.918 54.5691 140.301 49.6647 137.418 47.9154C136.928 46.7503 136.364 45.4704 135.851 44.4562C134.585 41.9482 136.485 37.2153 134.901 37.2153C133.318 37.2153 130.977 42.1929 131.101 43.5258C131.196 44.549 132.045 46.3355 132.221 47.8992C130.29 48.6248 128.732 49.8684 127.708 50.8585C126.822 51.7154 126.492 52.9939 126.839 54.1749C127.843 57.5974 130.351 64.6659 133.951 64.6659C138.702 64.6659 139.968 63.7193 139.968 63.7193C139.968 63.7193 149.785 76.0247 157.069 76.9713C164.352 77.9179 156.292 61.8966 156.292 61.8966V61.8967Z" fill="#FFB6B6"/>
</g>
<defs>
<clipPath id="clip0_554_287">
<rect width="162" height="168" fill="white"/>
</clipPath>
</defs>
</svg>
