<svg width="12" height="14" viewBox="0 0 12 14" fill="none" xmlns="http://www.w3.org/2000/svg">
    <path d="M1.5 6C1.354 6 1.23417 6.04683 1.1405 6.1405C1.04683 6.23417 1 6.354 1 6.5V12.5C1 12.646 1.04683 12.7658 1.1405 12.8595C1.23417 12.9532 1.354 13 1.5 13H10.5C10.646 13 10.7658 12.9532 10.8595 12.8595C10.9532 12.7658 11 12.646 11 12.5V6.5C11 6.354 10.9532 6.23417 10.8595 6.1405C10.7658 6.04683 10.646 6 10.5 6H1.5ZM1.5 5H10.5C10.927 5.01033 11.2812 5.15617 11.5625 5.4375C11.8438 5.71883 11.9897 6.073 12 6.5V12.5C11.9897 12.927 11.8438 13.2812 11.5625 13.5625C11.2812 13.8438 10.927 13.9897 10.5 14H1.5C1.073 13.9897 0.718833 13.8438 0.4375 13.5625C0.156167 13.2812 0.0103333 12.927 0 12.5V6.5C0.0103333 6.073 0.156167 5.71883 0.4375 5.4375C0.718833 5.15617 1.073 5.01033 1.5 5ZM6 7.5C6.146 7.5 6.26583 7.54683 6.3595 7.6405C6.45317 7.73417 6.5 7.854 6.5 8V11C6.5 11.146 6.45317 11.2658 6.3595 11.3595C6.26583 11.4532 6.146 11.5 6 11.5C5.854 11.5 5.73417 11.4532 5.6405 11.3595C5.54683 11.2658 5.5 11.146 5.5 11V8C5.5 7.854 5.54683 7.73417 5.6405 7.6405C5.73417 7.54683 5.854 7.5 6 7.5ZM9 5V4C8.979 3.14567 8.68733 2.43733 8.125 1.875C7.56267 1.31267 6.85433 1.021 6 1C5.14567 1.021 4.43733 1.31267 3.875 1.875C3.31267 2.43733 3.021 3.14567 3 4V5H9ZM6 0C7.13533 0.0313333 8.078 0.422 8.828 1.172C9.578 1.922 9.96867 2.86467 10 4V6H2V4C2.03133 2.86467 2.422 1.922 3.172 1.172C3.922 0.422 4.86467 0.0313333 6 0Z" fill="#55B520" />
</svg>